<svg id="Layer_1" enable-background="new 0 0 512 512" height="512" viewBox="0 0 512 512" width="512" xmlns="http://www.w3.org/2000/svg"><g id="XMLID_857_"><g id="XMLID_1168_"><path id="XMLID_1237_" d="m510.23 469.32-58.403-84.636c-3.137-4.545-9.365-5.688-13.91-2.551-4.546 3.137-5.688 9.364-2.551 13.91l47.583 68.957h-91.109l-50.405-205.077 42.822 62.056c3.137 4.545 9.364 5.688 13.91 2.551s5.688-9.364 2.551-13.91l-75.32-109.15c-1.866-2.705-4.943-4.32-8.23-4.32s-6.363 1.615-8.23 4.32l-100.27 145.306-23.742-34.406c-1.867-2.705-4.944-4.32-8.23-4.32s-6.364 1.615-8.23 4.32l-65.475 94.884-20.963-30.379c-1.867-2.705-4.944-4.32-8.23-4.32s-6.364 1.615-8.23 4.32l-63.798 92.445c-2.111 3.06-2.351 7.036-.624 10.327 1.727 3.292 5.137 5.353 8.854 5.353h492c3.717 0 7.127-2.062 8.854-5.353 1.728-3.289 1.488-7.267-.624-10.327zm-256.948-151.987h24.385c5.522 0 10-4.478 10-10s-4.478-10-10-10h-10.583l46.418-67.267 27.839 113.267h-20.341c-5.522 0-10 4.478-10 10s4.478 10 10 10h25.256l24.989 101.667h-80.995l-30.993-44.914h23.077c5.522 0 10-4.478 10-10s-4.478-10-10-10h-36.667c-.069 0-.136.009-.205.01l-24.646-35.715zm-110.444 147.667-20.472-29.667h10.968c5.523 0 10-4.478 10-10s-4.477-10-10-10h-11.622l49.529-71.775 8.832 47.775h-7.739c-5.523 0-10 4.478-10 10s4.477 10 10 10h11.436l9.92 53.667zm-113.788 0 44.744-64.841 44.744 64.841zm184.979 0-18.998-102.772 70.918 102.772z"/><path id="XMLID_1282_" d="m81 189c44.664 0 81-36.337 81-81s-36.336-81-81-81-81 36.337-81 81 36.336 81 81 81zm0-142c33.636 0 61 27.364 61 61s-27.364 61-61 61-61-27.364-61-61 27.364-61 61-61z"/><path id="XMLID_1283_" d="m418.04 363.33c2.63 0 5.21-1.061 7.069-2.931 1.87-1.859 2.931-4.439 2.931-7.069s-1.061-5.21-2.931-7.07c-1.859-1.86-4.439-2.93-7.069-2.93s-5.21 1.069-7.07 2.93-2.93 4.44-2.93 7.07c0 2.64 1.069 5.21 2.93 7.069 1.86 1.871 4.44 2.931 7.07 2.931z"/></g></g></svg>